<svg xmlns="http://www.w3.org/2000/svg" width="128" height="128" viewBox="0 0 128 128">
  <title>BUILDINGS</title>
  <g>
    <rect x="46.662" y="19" width="33.257" height="90" fill="#ffad5a"/>
    <rect x="25.461" y="39.599" width="21.202" height="69.401" transform="translate(72.123 148.599) rotate(180)" fill="#f9d16e"/>
    <polygon points="79.92 109 102.539 109 102.539 45.667 79.92 39.599 79.92 109" fill="#f9d16e"/>
    <rect x="53.416" y="28.482" width="6.355" height="6.355" fill="#fff8e3"/>
    <rect x="66.811" y="28.482" width="6.355" height="6.355" fill="#fff8e3"/>
    <rect x="53.416" y="41.418" width="6.355" height="6.355" fill="#fff8e3"/>
    <rect x="66.811" y="41.418" width="6.355" height="6.355" fill="#fff8e3"/>
    <rect x="53.416" y="54.354" width="6.355" height="6.355" fill="#fff8e3"/>
    <rect x="32.884" y="47.773" width="6.355" height="6.355" fill="#fff8e3"/>
    <rect x="32.884" y="62.151" width="6.355" height="6.355" fill="#fff8e3"/>
    <rect x="32.884" y="76.528" width="6.355" height="6.355" fill="#fff8e3"/>
    <rect x="32.884" y="90.906" width="6.355" height="6.355" fill="#fff8e3"/>
    <rect x="66.811" y="54.354" width="6.355" height="6.355" fill="#fff8e3"/>
    <rect x="87.051" y="54.354" width="8.356" height="4.312" fill="#fff8e3"/>
    <rect x="87.051" y="68.312" width="8.356" height="4.312" fill="#fff8e3"/>
    <rect x="87.051" y="82.27" width="8.356" height="4.312" fill="#fff8e3"/>
    <rect x="87.051" y="96.228" width="8.356" height="4.312" fill="#fff8e3"/>
    <rect x="53.416" y="67.29" width="6.355" height="6.355" fill="#fff8e3"/>
    <rect x="66.811" y="67.29" width="6.355" height="6.355" fill="#fff8e3"/>
    <rect x="53.416" y="80.227" width="6.355" height="6.355" fill="#fff8e3"/>
    <rect x="66.811" y="80.227" width="6.355" height="6.355" fill="#fff8e3"/>
    <rect x="53.416" y="93.163" width="6.355" height="6.355" fill="#fff8e3"/>
    <rect x="66.811" y="93.163" width="6.355" height="6.355" fill="#fff8e3"/>
    <path d="M109,110.75H19a1.75,1.75,0,0,1,0-3.5h90a1.75,1.75,0,0,1,0,3.5Z" fill="#2d1f5e"/>
  </g>
</svg>
