<svg xmlns="http://www.w3.org/2000/svg" width="128" height="128" viewBox="0 0 128 128">
  <title>BUS STOP</title>
  <g>
    <path d="M49.56,98.167h8.566a0,0,0,0,1,0,0v8.4a2.51,2.51,0,0,1-2.51,2.51H52.07a2.51,2.51,0,0,1-2.51-2.51v-8.4A0,0,0,0,1,49.56,98.167Z" fill="#2d1f5e"/>
    <path d="M92.646,98.33h8.566a0,0,0,0,1,0,0v8.4a2.51,2.51,0,0,1-2.51,2.51H95.156a2.51,2.51,0,0,1-2.51-2.51v-8.4A0,0,0,0,1,92.646,98.33Z" fill="#2d1f5e"/>
    <path d="M109,110.75H19a1.75,1.75,0,0,1,0-3.5h90a1.75,1.75,0,0,1,0,3.5Z" fill="#2d1f5e"/>
    <path d="M39.5,45.5a9.25,9.25,0,1,1-9.25-9.25A9.265,9.265,0,0,1,39.5,45.5Z" fill="#ff5959"/>
    <path d="M33,54.34V83H27.5V54.34a9.428,9.428,0,0,0,5.5,0Z" fill="#f9d16e"/>
    <path d="M28.231,83h4.038a2.893,2.893,0,0,1,2.893,2.893V109a0,0,0,0,1,0,0H25.338a0,0,0,0,1,0,0V85.893A2.893,2.893,0,0,1,28.231,83Z" fill="#3e8f93"/>
    <path d="M54.8,23.7H95.972a7.441,7.441,0,0,1,7.441,7.441V91.917a0,0,0,0,1,0,0H47.359a0,0,0,0,1,0,0V31.142A7.441,7.441,0,0,1,54.8,23.7Z" fill="#f9d16e"/>
    <rect x="53.364" y="39.645" width="44.044" height="23.165" rx="3.549" fill="#fff8e3"/>
    <path d="M107.17,94.46v.25a4.377,4.377,0,0,1-4.37,4.38H85.13V97.27a2.027,2.027,0,0,0-2.02-2.02H67.66a2.019,2.019,0,0,0-2.01,2.02v1.82H47.97a4.377,4.377,0,0,1-4.37-4.38v-.25a4.377,4.377,0,0,1,4.37-4.38H102.8A4.377,4.377,0,0,1,107.17,94.46Z" fill="#f7963e"/>
    <circle cx="57.463" cy="73.747" r="4.099" fill="#ffad5a"/>
    <circle cx="93.309" cy="73.747" r="4.099" fill="#ffad5a"/>
    <path d="M65.554,81.489H85.217A3.408,3.408,0,0,1,88.625,84.9V90.08a0,0,0,0,1,0,0H62.147a0,0,0,0,1,0,0V84.9A3.408,3.408,0,0,1,65.554,81.489Z" fill="#fff8e3"/>
    <path d="M85.13,97.27v3.63a2.021,2.021,0,0,1-2.02,2.02H67.66a2.012,2.012,0,0,1-2.01-2.02V97.27a2.019,2.019,0,0,1,2.01-2.02H83.11A2.027,2.027,0,0,1,85.13,97.27Z" fill="#f9d16e"/>
    <path d="M92.978,34.417H57.794a1.75,1.75,0,0,1,0-3.5H92.978a1.75,1.75,0,0,1,0,3.5Z" fill="#fff8e3"/>
  </g>
</svg>
