<?xml version="1.0" encoding="utf-8"?>
<!-- Generator: Adobe Illustrator 16.0.0, SVG Export Plug-In . SVG Version: 6.00 Build 0)  -->
<!DOCTYPE svg PUBLIC "-//W3C//DTD SVG 1.0//EN" "http://www.w3.org/TR/2001/REC-SVG-20010904/DTD/svg10.dtd">
<svg version="1.0" id="Layer_1" xmlns="http://www.w3.org/2000/svg" xmlns:xlink="http://www.w3.org/1999/xlink" x="0px" y="0px"
	 width="100px" height="100px" viewBox="0 0 100 100" enable-background="new 0 0 100 100" xml:space="preserve">
<path fill="#7CB342" d="M10.001,41.025c0,3.506,1.423,6.676,3.717,8.975c-2.294,2.299-3.717,5.469-3.717,8.979
	c0,7.002,5.684,12.688,12.688,12.688c9.16,0,17.447-3.932,23.454-10.277c0.25-0.27,0.478-0.564,0.719-0.842
	C47.8,72.012,52.807,82.328,60.479,90l4.715-4.715c-6.6-6.598-10.623-15.076-11.609-24.221c0.096,0.104,0.176,0.221,0.273,0.32
	c6.006,6.355,14.295,10.279,23.453,10.279c7.004,0,12.688-5.68,12.688-12.689c0-3.508-1.422-6.678-3.717-8.975
	c2.295-2.297,3.717-5.468,3.717-8.975c0-7.005-5.684-12.692-12.688-12.692c-2.154,0-4.254,0.233-6.297,0.651
	c0.42-2.041,0.652-4.141,0.652-6.294c0-7.008-5.68-12.689-12.691-12.689c-3.506,0-6.678,1.422-8.974,3.719
	C47.702,11.422,44.532,10,41.021,10c-7.001,0-12.688,5.682-12.688,12.689c0,2.153,0.234,4.254,0.651,6.293
	c-2.041-0.417-4.142-0.65-6.296-0.65C15.685,28.333,10.001,34.014,10.001,41.025z"/>
<path fill="#DCEDC8" d="M46.143,38.614c1.914,2.02,3.559,4.315,4.955,6.782c2.068-1.149,4.006-2.486,5.709-4.099
	C62.09,36.306,65,29.698,65,22.692c0-3.322-2.703-6.024-6.025-6.024c-1.609,0-3.121,0.629-4.262,1.769L50,23.145l-4.714-4.711
	c-1.14-1.14-2.657-1.768-4.265-1.768c-3.319,0-6.021,2.702-6.021,6.023c0,3.103,0.604,6.119,1.7,8.961
	C40.223,33.395,43.425,35.738,46.143,38.614z"/>
<path fill="#DCEDC8" d="M54.604,51.098c1.152,2.07,2.486,4.006,4.102,5.709C63.695,62.09,70.303,65,77.311,65
	c3.32,0,6.021-2.701,6.021-6.025c0-1.607-0.627-3.121-1.768-4.262L76.854,50l4.711-4.71c1.141-1.143,1.768-2.656,1.768-4.264
	c0-3.323-2.701-6.025-6.021-6.025c-3.105,0-6.119,0.602-8.961,1.7c-1.74,3.522-4.084,6.725-6.963,9.442
	C59.365,48.056,57.074,49.699,54.604,51.098z"/>
<path fill="#DCEDC8" d="M16.667,58.979c0,3.32,2.701,6.021,6.021,6.021c7.005,0,13.614-2.91,18.607-8.189
	c1.904-2.016,3.496-4.297,4.751-6.81c-1.256-2.517-2.845-4.798-4.752-6.808c-4.99-5.282-11.597-8.192-18.606-8.192
	c-3.32,0-6.021,2.701-6.021,6.024c0,1.608,0.628,3.121,1.769,4.262L23.146,50l-4.709,4.713
	C17.296,55.854,16.667,57.369,16.667,58.979z"/>
</svg>
