<?xml version="1.0" encoding="utf-8"?>
<!-- Generator: Adobe Illustrator 16.0.0, SVG Export Plug-In . SVG Version: 6.00 Build 0)  -->
<!DOCTYPE svg PUBLIC "-//W3C//DTD SVG 1.0//EN" "http://www.w3.org/TR/2001/REC-SVG-20010904/DTD/svg10.dtd">
<svg version="1.0" id="Layer_1" xmlns="http://www.w3.org/2000/svg" xmlns:xlink="http://www.w3.org/1999/xlink" x="0px" y="0px"
	 width="100px" height="100px" viewBox="0 0 100 100" enable-background="new 0 0 100 100" xml:space="preserve">
<polygon fill="#EF5350" points="10,30 16.667,48.334 10,56.666 31.904,67.621 26.668,83.333 46.667,77.622 46.667,90 53.334,90 
	53.334,77.622 73.333,83.333 68.096,67.621 89.999,56.666 83.333,48.334 89.999,30 63.332,43.334 70,16.669 56.666,23.334 50,10 
	43.333,23.334 30,16.669 36.667,43.334 "/>
<polygon fill="#FFEBEE" points="39.982,29.111 46.65,55.777 21.982,43.445 24.212,49.574 20.357,54.391 40.059,64.243 36.984,73.45 
	50,69.732 63.01,73.45 59.941,64.243 79.642,54.391 75.788,49.574 78.017,43.445 53.35,55.777 60.018,29.111 53.686,32.278 
	50,24.909 46.315,32.278 "/>
</svg>
