<svg xmlns="http://www.w3.org/2000/svg" width="128" height="128" viewBox="0 0 128 128">
  <title>MARKET</title>
  <g>
    <path d="M99.92,55.53V82.27H27.99V55.53a2.348,2.348,0,0,0,.27-.01,8.978,8.978,0,0,0,8.71-8.98H90.93A9,9,0,0,0,99.92,55.53Z" fill="#fff8e3"/>
    <path d="M36.97,46.54a8.978,8.978,0,0,1-8.71,8.98,2.348,2.348,0,0,1-.27.01A8.99,8.99,0,0,1,19,46.54Z" fill="#e84949"/>
    <path d="M45.971,55.533a8.992,8.992,0,0,0,8.992-8.992H36.979A8.992,8.992,0,0,0,45.971,55.533Z" fill="#edba54"/>
    <path d="M63.955,55.533a8.992,8.992,0,0,0,8.993-8.992H54.963A8.992,8.992,0,0,0,63.955,55.533Z" fill="#e84949"/>
    <path d="M81.94,55.533a8.992,8.992,0,0,0,8.992-8.992H72.948A8.992,8.992,0,0,0,81.94,55.533Z" fill="#edba54"/>
    <polygon points="90.932 46.541 72.948 46.541 71.835 19 85.834 19 90.932 46.541" fill="#f9d16e"/>
    <polygon points="108.917 46.541 90.932 46.541 85.834 19 97.375 19 108.917 46.541" fill="#ff5959"/>
    <polygon points="36.982 46.541 54.967 46.541 56.079 19 42.081 19 36.982 46.541" fill="#f9d16e"/>
    <polygon points="18.998 46.541 36.982 46.541 42.081 19 30.539 19 18.998 46.541" fill="#ff5959"/>
    <polygon points="71.835 19 63.959 19 63.955 19 56.079 19 54.967 46.541 63.955 46.541 63.959 46.541 72.948 46.541 71.835 19" fill="#ff5959"/>
    <path d="M108.92,46.54a9,9,0,0,1-8.9,8.99h-.1a9,9,0,0,1-8.99-8.99Z" fill="#e84949"/>
    <rect x="25.46" y="82.27" width="77.08" height="26.73" rx="2.991" fill="#f9d16e"/>
    <rect x="35.607" y="72.619" width="22.851" height="9.651" fill="#4f9da6"/>
    <rect x="41.528" y="61.188" width="11.01" height="5.625" fill="#4f9da6"/>
    <path d="M47.033,74.369a1.75,1.75,0,0,1-1.75-1.75V66.813a1.75,1.75,0,0,1,3.5,0v5.806A1.751,1.751,0,0,1,47.033,74.369Z" fill="#4f9da6"/>
    <rect x="65.832" y="74.25" width="11.02" height="8.02" fill="#4f9da6"/>
    <rect x="83.105" y="74.25" width="11.02" height="8.02" fill="#4f9da6"/>
    <path d="M109,110.75H19a1.75,1.75,0,0,1,0-3.5h90a1.75,1.75,0,0,1,0,3.5Z" fill="#2d1f5e"/>
  </g>
</svg>
