<?xml version="1.0" encoding="utf-8"?>
<!-- Generator: Adobe Illustrator 16.0.0, SVG Export Plug-In . SVG Version: 6.00 Build 0)  -->
<!DOCTYPE svg PUBLIC "-//W3C//DTD SVG 1.0//EN" "http://www.w3.org/TR/2001/REC-SVG-20010904/DTD/svg10.dtd">
<svg version="1.0" id="Layer_1" xmlns="http://www.w3.org/2000/svg" xmlns:xlink="http://www.w3.org/1999/xlink" x="0px" y="0px"
	 width="100px" height="100px" viewBox="0 0 100 100" enable-background="new 0 0 100 100" xml:space="preserve">
<path fill="#7CB342" d="M16.667,70v3.333c7.429,3.083,15.285,5.124,23.332,6.063l6.668,0.513c2.213,0.088,4.437,0.106,6.666,0.022
	l6.666-0.535c7.84-0.907,15.685-2.881,23.334-6.051V70c-5.289-5.29-10.244-10.791-14.905-16.451
	c1.645-0.561,3.283-1.152,4.905-1.873v-3.342c-5.062-5.063-9.519-10.5-13.429-16.2l-0.059,0.009c2.293-0.538,4.574-1.211,6.82-2.143
	c-6.521-6.521-12.061-12.461-16.667-20c-4.609,7.539-10.144,13.479-16.666,20c2.182,0.907,4.453,1.596,6.763,2.137h-0.005
	c-3.905,5.698-8.362,11.135-13.424,16.196v3.333c1.603,0.713,3.242,1.326,4.897,1.889C26.906,59.213,21.956,64.71,16.667,70z"/>
<polygon fill="#9B8579" points="53.333,79.932 53.333,90 59.999,90 59.999,79.396 "/>
<polygon fill="#9B8579" points="39.999,79.396 39.999,90 46.667,90 46.667,79.909 "/>
<path fill="#DCEDC8" d="M38.584,55.463l0.007,0.002c-3.93,4.887-8.123,9.598-12.451,14.21c15.605,4.888,32.125,4.888,47.73,0.007
	c-4.327-4.604-8.513-9.305-12.434-14.18C53.756,57.08,46.015,56.992,38.584,55.463z"/>
<path fill="#DCEDC8" d="M54.053,26.441c-1.369-1.545-2.733-3.15-4.054-4.828c-1.32,1.678-2.683,3.281-4.055,4.827
	c1.348,0.149,2.702,0.224,4.069,0.224C51.366,26.664,52.715,26.589,54.053,26.441z"/>
<path fill="#DCEDC8" d="M36.146,47.982c9.108,2.625,18.603,2.625,27.715,0.004c-4.158-4.67-7.92-9.606-11.271-14.775l0.039-0.005
	c-1.758,0.105-3.502,0.1-5.24-0.007l0.024,0.003C44.064,38.373,40.3,43.313,36.146,47.982z"/>
</svg>
