<svg xmlns="http://www.w3.org/2000/svg" viewBox="0 0 512 512"><title>Townhouse05</title><g id="Townhouse_05" data-name="Townhouse 05"><g id="Townhouse_05-2" data-name="Townhouse 05"><rect x="133.7868" y="231.5794" width="34.3729" height="51.3486"/><rect x="209.3931" y="231.5794" width="34.3728" height="51.3486"/><rect x="133.7868" y="318.5923" width="34.3729" height="51.3414"/><path d="M418.5557,323.6917c-.009-.063-.0063-.126-.0189-.189a9.2663,9.2663,0,0,0-.6957-2.0817c-.0288-.0567-.0315-.117-.06-.1737l-27.405-56.709V223.1689h-18.9v34.083H303.1712a9.4553,9.4553,0,0,0-8.5076,5.3361l-10.3924,21.4992V195.1591a9.4311,9.4311,0,0,0-2.4066-6.3L195.8256,92.605a9.4525,9.4525,0,0,0-14.09,0l-34.4079,38.4831V108.9814h-18.9v43.2468L95.6808,188.8591a9.4669,9.4669,0,0,0-2.4066,6.3V413.095a9.4511,9.4511,0,0,0,9.45,9.45H409.2758a9.447,9.447,0,0,0,9.45-9.45v-87.73A9.4062,9.4062,0,0,0,418.5557,323.6917ZM112.1742,204.6091h153.197V403.645H243.7659v-85.05H209.3931v85.05H112.1742ZM399.8258,403.6423H363.3677V357.8314H320.7293v45.8109H284.2712V334.8148H399.8258Z"/></g></g></svg>