<svg xmlns="http://www.w3.org/2000/svg" width="128" height="128" viewBox="0 0 128 128">
  <title>TREE</title>
  <g>
    <path d="M109,110.75H19a1.75,1.75,0,0,1,0-3.5h90a1.75,1.75,0,0,1,0,3.5Z" fill="#2d1f5e"/>
    <path d="M67.685,48.419v25.4a20.755,20.755,0,0,1-41.51,0v-25.4a20.755,20.755,0,0,1,41.51,0Z" fill="#4f9da6"/>
    <path d="M101.825,70.489a19.142,19.142,0,0,1-35.32,10.24,20.8,20.8,0,0,0,1.18-6.91V58.589a19.141,19.141,0,0,1,34.14,11.9Z" fill="#3e8f93"/>
    <path d="M56.17,66.72l-7.494,7.5V62.549l9.969-9.969a1.75,1.75,0,0,0-2.475-2.475l-7.494,7.5V45.073a1.75,1.75,0,1,0-3.5,0V57.6l-7.493-7.493a1.75,1.75,0,0,0-2.475,2.475l9.968,9.967V74.213L37.683,66.72a1.75,1.75,0,1,0-2.475,2.475l9.968,9.968V109a1.75,1.75,0,0,0,3.5,0V79.164l9.969-9.969A1.75,1.75,0,0,0,56.17,66.72Z" fill="#2d1f5e"/>
    <path d="M91.967,67.936a1.749,1.749,0,0,0-2.475,0L84.429,73V62.226a1.75,1.75,0,0,0-3.5,0V73l-5.064-5.063a1.75,1.75,0,0,0-2.474,2.475l7.538,7.537V109a1.75,1.75,0,0,0,3.5,0V77.948l7.538-7.537A1.751,1.751,0,0,0,91.967,67.936Z" fill="#2d1f5e"/>
  </g>
</svg>
